<svg width="750" height="200" viewBox="0 0 750 200" fill="none" xmlns="http://www.w3.org/2000/svg">
<g clip-path="url(#clip0_108_178)">
<rect width="750" height="200" fill="#FFFBEB"/>
<ellipse cx="416.5" cy="-26" rx="138.5" ry="82" fill="#0EA5E9" fill-opacity="0.69"/>
<ellipse cx="627" cy="-26" rx="123" ry="82" fill="#F97316" fill-opacity="0.52"/>
<ellipse cx="375.5" cy="241" rx="126.5" ry="82" fill="#90B0D0"/>
<ellipse cx="181" cy="241" rx="124" ry="82" fill="#002E47" fill-opacity="0.75"/>
<path d="M115.713 13H111.62C110.357 13 109.333 14.0238 109.333 15.2868V19.3798C109.333 20.6428 110.357 21.6667 111.62 21.6667H115.713C116.976 21.6667 118 20.6428 118 19.3798V15.2868C118 14.0238 116.976 13 115.713 13Z" fill="#FF9D28"/>
<path d="M99.6845 22.5773H103.279C104.766 22.6618 106.181 23.2477 107.292 24.2396L107.427 24.3894C108.424 25.4976 109.011 26.9143 109.089 28.4029V31.9821C109.089 32.6057 109.337 33.2037 109.778 33.6447C110.219 34.0856 110.817 34.3333 111.441 34.3333H115.649C116.272 34.3333 116.87 34.0856 117.311 33.6447C117.752 33.2037 118 32.6057 118 31.9821V27.7739C118 27.1503 117.752 26.5523 117.311 26.1114C116.87 25.6705 116.272 25.4227 115.649 25.4227H112.07C110.581 25.3441 109.164 24.7574 108.056 23.7604L107.906 23.6256C106.912 22.5154 106.326 21.0999 106.244 19.6121V16.0179C106.244 15.3943 105.996 14.7963 105.555 14.3553C105.114 13.9144 104.516 13.6667 103.893 13.6667H99.6845C99.0609 13.6667 98.4629 13.9144 98.022 14.3553C97.5811 14.7963 97.3333 15.3943 97.3333 16.0179V20.2261C97.3333 20.8497 97.5811 21.4477 98.022 21.8886C98.4629 22.3295 99.0609 22.5773 99.6845 22.5773Z" fill="#FF9D28"/>
<path d="M92.3798 36.3333H88.2868C87.0238 36.3333 86 37.3572 86 38.6202V42.7132C86 43.9762 87.0238 45 88.2868 45H92.3798C93.6428 45 94.6667 43.9762 94.6667 42.7132V38.6202C94.6667 37.3572 93.6428 36.3333 92.3798 36.3333Z" fill="#FF9D28"/>
<path d="M92.3798 13H88.2868C87.0238 13 86 14.0239 86 15.2869V19.3799C86 20.6429 87.0238 21.6667 88.2868 21.6667H92.3798C93.6428 21.6667 94.6667 20.6429 94.6667 19.3799V15.2869C94.6667 14.0239 93.6428 13 92.3798 13Z" fill="#FF9D28"/>
<path d="M115.713 36.3333H111.62C110.357 36.3333 109.333 37.3572 109.333 38.6202V42.7132C109.333 43.9762 110.357 45 111.62 45H115.713C116.976 45 118 43.9762 118 42.7132V38.6202C118 37.3572 116.976 36.3333 115.713 36.3333Z" fill="#FF9D28"/>
<path d="M106 29.3333C106 31.7266 104.06 33.6667 101.667 33.6667C99.2734 33.6667 97.3333 31.7266 97.3333 29.3333C97.3333 26.9401 99.2734 25 101.667 25C104.06 25 106 26.9401 106 29.3333Z" fill="#FF9D28"/>
<path d="M104.315 36.0893H100.736C99.2476 36.0107 97.8309 35.4241 96.7227 34.4271L96.5729 34.2923C95.5727 33.1742 94.9861 31.7471 94.9106 30.2488V26.6546C94.9032 26.049 94.6624 25.4696 94.2383 25.0371C93.8143 24.6047 93.2397 24.3526 92.6343 24.3333H88.3512C87.7276 24.3333 87.1296 24.5811 86.6887 25.022C86.2477 25.4629 86 26.0609 86 26.6845V30.8927C86 31.5163 86.2477 32.1143 86.6887 32.5553C87.1296 32.9963 87.7276 33.2439 88.3512 33.2439H91.9454C93.4327 33.3285 94.8475 33.9144 95.9589 34.9063L96.0937 35.056C97.0907 36.1643 97.6775 37.5809 97.756 39.0695V42.6487C97.756 42.9588 97.8173 43.2657 97.9364 43.5519C98.0555 43.8382 98.2301 44.0981 98.45 44.3166C98.6699 44.5351 98.9309 44.708 99.2179 44.8253C99.5049 44.9425 99.8122 45.0019 100.122 44.9999H104.315C104.939 44.9999 105.537 44.7523 105.978 44.3113C106.419 43.8704 106.667 43.2723 106.667 42.6487V38.4405C106.667 37.817 106.419 37.2189 105.978 36.778C105.537 36.3371 104.939 36.0893 104.315 36.0893Z" fill="#FF9D28"/>
</g>
<defs>
<clipPath id="clip0_108_178">
<rect width="750" height="200" fill="white"/>
</clipPath>
</defs>
</svg>
