<svg width="1061" height="508" viewBox="0 0 1061 508" fill="none" xmlns="http://www.w3.org/2000/svg">
<g clip-path="url(#clip0_5_193)">
<path d="M828.793 76.2311H568.623V70.8691H450.652V76.2311H189.41C184.742 76.2311 180.266 78.0854 176.965 81.3861C173.664 84.6867 171.81 89.1633 171.81 93.8311V93.8311V450.081C171.81 454.749 173.664 459.226 176.965 462.526C180.266 465.827 184.742 467.681 189.41 467.681H828.793C833.461 467.681 837.937 465.827 841.238 462.526C844.539 459.226 846.393 454.749 846.393 450.081V93.8292C846.392 89.1617 844.538 84.6856 841.237 81.3854C837.937 78.0852 833.46 76.2311 828.793 76.2311V76.2311Z" fill="#3F3D56"/>
<path d="M822.797 107.332H195.406V461.245H822.797V107.332Z" fill="#E6E6E6"/>
<path d="M796.404 126.048H222.013V431.961H796.404V126.048Z" fill="white"/>
<path d="M508.565 97.6813C512.119 97.6813 515 94.8002 515 91.2463C515 87.6923 512.119 84.8113 508.565 84.8113C505.011 84.8113 502.13 87.6923 502.13 91.2463C502.13 94.8002 505.011 97.6813 508.565 97.6813Z" fill="#6C63FF"/>
<path d="M864.007 454.81H802.778V450.398C802.778 450.166 802.686 449.944 802.522 449.779C802.358 449.615 802.135 449.523 801.903 449.523H780.91C780.678 449.523 780.455 449.615 780.291 449.779C780.127 449.944 780.035 450.166 780.035 450.398V450.398V454.81H766.915V450.398C766.915 450.166 766.823 449.944 766.659 449.779C766.495 449.615 766.272 449.523 766.04 449.523H745.047C744.815 449.523 744.592 449.615 744.428 449.779C744.264 449.944 744.172 450.166 744.172 450.398V450.398V454.81H731.052V450.398C731.052 450.166 730.96 449.944 730.796 449.779C730.632 449.615 730.409 449.523 730.177 449.523H709.184C708.952 449.523 708.729 449.615 708.565 449.779C708.401 449.944 708.309 450.166 708.309 450.398V450.398V454.81H695.189V450.398C695.189 450.166 695.097 449.944 694.933 449.779C694.769 449.615 694.546 449.523 694.314 449.523H673.322C673.09 449.523 672.867 449.615 672.703 449.779C672.539 449.944 672.447 450.166 672.447 450.398V450.398V454.81H659.326V450.398C659.326 450.166 659.234 449.944 659.07 449.779C658.906 449.615 658.683 449.523 658.451 449.523H637.459C637.227 449.523 637.004 449.615 636.84 449.779C636.676 449.944 636.584 450.166 636.584 450.398V450.398V454.81H623.463V450.398C623.463 450.166 623.371 449.944 623.207 449.779C623.043 449.615 622.82 449.523 622.588 449.523H601.6C601.368 449.523 601.145 449.615 600.981 449.779C600.817 449.944 600.725 450.166 600.725 450.398V450.398V454.81H587.6V450.398C587.6 450.166 587.508 449.944 587.344 449.779C587.18 449.615 586.957 449.523 586.725 449.523H422.281C422.049 449.523 421.826 449.615 421.662 449.779C421.498 449.944 421.406 450.166 421.406 450.398V450.398V454.81H408.286V450.398C408.286 450.166 408.194 449.944 408.03 449.779C407.866 449.615 407.643 449.523 407.411 449.523H386.418C386.186 449.523 385.963 449.615 385.799 449.779C385.635 449.944 385.543 450.166 385.543 450.398V450.398V454.81H372.423V450.398C372.423 450.166 372.331 449.944 372.167 449.779C372.003 449.615 371.78 449.523 371.548 449.523H350.556C350.324 449.523 350.101 449.615 349.937 449.779C349.773 449.944 349.681 450.166 349.681 450.398V450.398V454.81H336.56V450.398C336.56 450.166 336.468 449.944 336.304 449.779C336.14 449.615 335.917 449.523 335.685 449.523H314.693C314.461 449.523 314.238 449.615 314.074 449.779C313.91 449.944 313.818 450.166 313.818 450.398V450.398V454.81H300.7V450.398C300.7 450.166 300.608 449.944 300.444 449.779C300.28 449.615 300.057 449.523 299.825 449.523H278.83C278.598 449.523 278.375 449.615 278.211 449.779C278.047 449.944 277.955 450.166 277.955 450.398V450.398V454.81H264.835V450.398C264.835 450.166 264.743 449.944 264.579 449.779C264.415 449.615 264.192 449.523 263.96 449.523H242.967C242.735 449.523 242.512 449.615 242.348 449.779C242.184 449.944 242.092 450.166 242.092 450.398V450.398V454.81H228.972V450.398C228.972 450.166 228.88 449.944 228.716 449.779C228.552 449.615 228.329 449.523 228.097 449.523H207.1C206.868 449.523 206.645 449.615 206.481 449.779C206.317 449.944 206.225 450.166 206.225 450.398V450.398V454.81H165.993C160.425 454.81 155.086 457.022 151.149 460.959C147.212 464.896 145 470.235 145 475.803V485.295C145 490.863 147.212 496.203 151.149 500.14C155.086 504.076 160.425 506.288 165.993 506.288H864.007C869.575 506.288 874.914 504.077 878.851 500.14C882.788 496.203 885 490.864 885 485.296V475.804C885 470.237 882.788 464.897 878.851 460.96C874.914 457.023 869.575 454.811 864.007 454.811V454.81Z" fill="#3F3D56"/>
<path d="M636.209 147.504H382.209V414.504H636.209V147.504Z" fill="#E6E6E6"/>
<path d="M1061 505.397H0V507.397H1061V505.397Z" fill="#E6E6E6"/>
<path d="M957.957 435.532C972.333 450.958 973.076 473.632 973.076 473.632C973.076 473.632 950.511 471.294 936.135 455.868C921.759 440.442 921.016 417.768 921.016 417.768C921.016 417.768 943.581 420.106 957.957 435.532Z" fill="#6C63FF"/>
<path d="M1003.21 459.611C987.788 473.987 965.114 474.73 965.114 474.73C965.114 474.73 967.452 452.165 982.878 437.789C998.304 423.413 1020.98 422.67 1020.98 422.67C1020.98 422.67 1018.64 445.235 1003.21 459.611Z" fill="#6C63FF"/>
<path d="M103.1 454.941C87.674 469.317 65 470.06 65 470.06C65 470.06 67.338 447.495 82.764 433.119C98.19 418.743 120.864 418 120.864 418C120.864 418 118.527 440.565 103.1 454.941Z" fill="#6C63FF"/>
<path d="M999.38 505.396H942.641C941.552 505.397 940.485 505.091 939.563 504.513C938.64 503.936 937.898 503.11 937.422 502.131L925.069 476.738C924.638 475.854 924.438 474.874 924.49 473.891C924.542 472.908 924.843 471.954 925.365 471.12C925.887 470.286 926.613 469.598 927.474 469.121C928.335 468.645 929.304 468.395 930.288 468.396H1011.73C1012.72 468.395 1013.69 468.645 1014.55 469.121C1015.41 469.598 1016.13 470.286 1016.66 471.12C1017.18 471.954 1017.48 472.908 1017.53 473.891C1017.58 474.874 1017.38 475.854 1016.95 476.738L1004.6 502.132C1004.12 503.111 1003.38 503.937 1002.46 504.514C1001.54 505.092 1000.47 505.398 999.381 505.397L999.38 505.396Z" fill="#E5E5E5"/>
<path d="M60.957 435.532C75.333 450.958 76.076 473.632 76.076 473.632C76.076 473.632 53.511 471.294 39.135 455.868C24.759 440.442 24.016 417.768 24.016 417.768C24.016 417.768 46.581 420.106 60.957 435.532Z" fill="#6C63FF"/>
<path d="M93.38 505.396H36.641C35.5523 505.397 34.4855 505.091 33.5626 504.513C32.6396 503.936 31.8978 503.11 31.422 502.131L19.069 476.738C18.6376 475.854 18.4385 474.874 18.4903 473.891C18.5421 472.908 18.8433 471.954 19.3653 471.12C19.8873 470.286 20.6131 469.598 21.4743 469.121C22.3355 468.645 23.3038 468.395 24.288 468.396H105.734C106.718 468.395 107.687 468.645 108.548 469.121C109.409 469.598 110.135 470.286 110.657 471.12C111.179 471.954 111.48 472.908 111.532 473.891C111.584 474.874 111.384 475.854 110.953 476.738L98.6 502.132C98.1242 503.111 97.3824 503.937 96.4594 504.514C95.5365 505.092 94.4697 505.398 93.381 505.397L93.38 505.396Z" fill="#E5E5E5"/>
<path d="M539.856 223.087C558.499 223.087 573.613 207.974 573.613 189.33C573.613 170.687 558.499 155.573 539.856 155.573C521.213 155.573 506.099 170.687 506.099 189.33C506.099 207.974 521.213 223.087 539.856 223.087Z" fill="#A0616A"/>
<path d="M462.186 415.054L483.986 277.817C485.145 270.521 487.845 263.555 491.905 257.382C495.966 251.21 501.295 245.974 507.536 242.021C513.778 238.069 520.79 235.49 528.106 234.459C535.422 233.427 542.873 233.964 549.965 236.036V236.036C562.364 239.622 572.981 247.702 579.742 258.697C586.502 269.693 588.921 282.813 586.526 295.496L563.726 418.055L462.186 415.054Z" fill="#6C63FF"/>
<path d="M549.176 439.609C550.862 438.496 552.283 437.026 553.34 435.304C554.397 433.582 555.063 431.649 555.292 429.641C555.52 427.634 555.306 425.601 554.664 423.685C554.022 421.769 552.968 420.017 551.576 418.553L574.111 374.914L548.733 377.622L531.224 418.648C528.929 421.152 527.63 424.41 527.572 427.806C527.515 431.202 528.703 434.502 530.912 437.082C533.122 439.662 536.2 441.344 539.564 441.81C542.929 442.275 546.348 441.493 549.175 439.61L549.176 439.609Z" fill="#A0616A"/>
<path d="M554.002 410.856C552.755 410.68 551.592 410.128 550.667 409.274L542.045 401.307C541.114 400.442 540.47 399.312 540.202 398.07C539.934 396.828 540.054 395.533 540.545 394.361L557.777 353.516L555.332 272.811C556.046 267.575 558.811 262.838 563.018 259.641C567.226 256.443 572.531 255.049 577.766 255.763C583.002 256.477 587.74 259.242 590.937 263.449C594.134 267.656 595.529 272.961 594.815 278.197V278.197L598.995 328.93C600.266 344.328 595.9 359.662 586.711 372.082L559.838 408.411C559.321 409.109 558.663 409.691 557.906 410.118C557.15 410.545 556.312 410.808 555.447 410.89C554.966 410.936 554.481 410.925 554.002 410.856V410.856Z" fill="#6C63FF"/>
<path d="M345.459 170.938C345.827 172.925 346.626 174.807 347.8 176.451C348.973 178.096 350.493 179.463 352.253 180.457C354.012 181.45 355.968 182.046 357.982 182.202C359.997 182.358 362.021 182.07 363.912 181.359L395.312 219.125L402.712 194.699L371.76 162.58C370.348 159.492 367.854 157.028 364.75 155.652C361.646 154.277 358.145 154.085 354.909 155.114C351.673 156.142 348.925 158.319 347.185 161.235C345.444 164.15 344.83 167.602 345.46 170.938H345.459Z" fill="#A0616A"/>
<path d="M370.056 186.592C370.704 185.513 371.666 184.657 372.813 184.138L383.513 179.305C384.673 178.785 385.964 178.633 387.213 178.87C388.462 179.107 389.607 179.723 390.495 180.632L421.389 212.425L496.661 241.64C498.912 242.976 500.878 244.742 502.447 246.837C504.015 248.933 505.155 251.317 505.802 253.854C506.449 256.39 506.589 259.029 506.216 261.62C505.842 264.211 504.961 266.703 503.624 268.953C502.287 271.203 500.52 273.168 498.423 274.735C496.327 276.302 493.942 277.441 491.405 278.086C488.868 278.731 486.229 278.87 483.638 278.494C481.048 278.119 478.556 277.237 476.307 275.898V275.898L427.96 259.966C413.285 255.133 400.866 245.134 393.012 231.829L370.036 192.919C369.595 192.171 369.316 191.338 369.217 190.475C369.119 189.612 369.203 188.738 369.465 187.909C369.61 187.449 369.81 187.007 370.059 186.593L370.056 186.592Z" fill="#6C63FF"/>
<path opacity="0.1" d="M567.237 306.383L565.863 350.364L540.544 394.364L561.685 345.334L567.237 306.383Z" fill="black"/>
<path d="M516.995 172.41C520.477 176.531 526.369 177.693 531.805 178.17C542.844 179.138 558.896 177.57 569.684 175.077C570.454 182.54 568.355 190.586 572.75 196.725C574.811 189.293 576.009 181.648 576.321 173.942C576.454 170.642 576.402 167.218 575.059 164.184C573.716 161.15 570.787 158.575 567.414 158.548C569.92 156.647 572.855 155.392 575.961 154.894L565.281 149.527L568.024 146.711L548.688 145.528L554.288 141.97C545.859 140.813 537.332 140.545 528.847 141.17C524.907 141.46 520.787 142.015 517.595 144.298C514.403 146.581 512.558 151.118 514.54 154.47C512.059 154.878 509.723 155.912 507.753 157.475C505.783 159.038 504.245 161.078 503.284 163.401C501.861 167.009 501.991 171.017 502.43 174.862C503.159 181.012 504.588 187.058 506.69 192.882" fill="#2F2E41"/>
<path d="M661.305 87.8439L353.707 158.859C352.197 159.205 350.61 158.939 349.296 158.118C347.981 157.296 347.046 155.987 346.696 154.477L329.08 78.1755C328.733 76.6649 329 75.0784 329.821 73.7641C330.642 72.4497 331.952 71.5147 333.461 71.1643L641.059 0.149684C642.57 -0.197162 644.156 0.069303 645.471 0.89062C646.785 1.71194 647.72 3.02104 648.07 4.53079L665.686 80.8328C666.033 82.3434 665.766 83.9298 664.945 85.2442C664.124 86.5585 662.815 87.4935 661.305 87.8439Z" fill="white"/>
<path d="M661.305 87.8439L353.707 158.859C352.197 159.205 350.61 158.939 349.296 158.118C347.981 157.296 347.046 155.987 346.696 154.477L329.08 78.1755C328.733 76.6649 329 75.0784 329.821 73.7641C330.642 72.4497 331.952 71.5147 333.461 71.1643L641.059 0.149684C642.57 -0.197162 644.156 0.069303 645.471 0.89062C646.785 1.71194 647.72 3.02104 648.07 4.53079L665.686 80.8328C666.033 82.3434 665.766 83.9298 664.945 85.2442C664.124 86.5585 662.815 87.4935 661.305 87.8439ZM333.987 73.4433C333.081 73.6535 332.296 74.2145 331.803 75.0033C331.31 75.792 331.15 76.744 331.358 77.6505L348.974 153.952C349.184 154.859 349.745 155.644 350.534 156.137C351.323 156.63 352.275 156.79 353.181 156.581L660.779 85.5668C661.685 85.3568 662.471 84.7958 662.964 84.007C663.457 83.2182 663.617 82.2661 663.408 81.3596L645.792 5.05668C645.582 4.15056 645.021 3.36479 644.233 2.87188C643.444 2.37898 642.492 2.21922 641.585 2.42768L333.987 73.4433Z" fill="#E6E6E6"/>
<path d="M440.721 73.2073C440.213 73.3235 439.732 73.5388 439.307 73.8407C438.882 74.1426 438.521 74.5252 438.244 74.9668C437.967 75.4084 437.779 75.9002 437.692 76.4142C437.605 76.9283 437.621 77.4544 437.737 77.9626C437.853 78.4708 438.069 78.951 438.371 79.3759C438.673 79.8009 439.056 80.1621 439.497 80.4391C439.939 80.716 440.431 80.9033 440.945 80.9901C441.459 81.0769 441.985 81.0615 442.493 80.945L442.507 80.9419L624.819 38.8517C625.843 38.6136 626.731 37.9787 627.288 37.0865C627.844 36.1943 628.024 35.1176 627.787 34.093C627.551 33.0684 626.917 32.1795 626.026 31.6216C625.135 31.0637 624.058 30.8822 623.033 31.1172L440.721 73.2073Z" fill="#E6E6E6"/>
<path d="M446.078 96.412C445.57 96.5282 445.09 96.7434 444.665 97.0453C444.24 97.3472 443.878 97.7298 443.601 98.1714C443.324 98.613 443.137 99.1048 443.05 99.6189C442.963 100.133 442.978 100.659 443.094 101.167C443.211 101.675 443.426 102.156 443.728 102.581C444.03 103.005 444.413 103.367 444.855 103.644C445.296 103.921 445.788 104.108 446.302 104.195C446.816 104.281 447.342 104.266 447.85 104.15L447.864 104.147L526.313 86.035C527.339 85.7997 528.229 85.1666 528.789 84.275C529.348 83.3834 529.53 82.3062 529.295 81.2804C529.06 80.2546 528.427 79.364 527.536 78.8046C526.644 78.2452 525.567 78.0628 524.541 78.2974L524.528 78.3005L446.078 96.412Z" fill="#E6E6E6"/>
<path d="M390.881 124.637C404.033 124.637 414.695 113.975 414.695 100.823C414.695 87.6707 404.033 77.0088 390.881 77.0088C377.729 77.0088 367.067 87.6707 367.067 100.823C367.067 113.975 377.729 124.637 390.881 124.637Z" fill="#6C63FF"/>
<path d="M390.211 114.561C389.431 114.742 388.614 114.664 387.883 114.341L387.837 114.32L378.255 109.97C377.81 109.769 377.409 109.481 377.075 109.125C376.742 108.768 376.481 108.349 376.31 107.892C376.138 107.435 376.058 106.948 376.075 106.46C376.091 105.972 376.204 105.492 376.406 105.047C376.608 104.602 376.896 104.202 377.253 103.869C377.61 103.535 378.029 103.276 378.487 103.105C378.944 102.934 379.431 102.854 379.919 102.872C380.407 102.889 380.887 103.002 381.332 103.205L387.541 106.032L396.251 86.8916C396.659 85.9955 397.407 85.2981 398.329 84.9528C399.251 84.6076 400.272 84.6426 401.168 85.0504V85.0504L401.116 85.1754L401.171 85.0497C402.067 85.4586 402.763 86.2061 403.109 87.1281C403.454 88.0501 403.419 89.0713 403.012 89.9677L392.767 112.483C392.53 113.002 392.176 113.459 391.733 113.819C391.29 114.179 390.771 114.432 390.215 114.559L390.211 114.561Z" fill="white"/>
</g>
<defs>
<clipPath id="clip0_5_193">
<rect width="1061" height="507.397" fill="white"/>
</clipPath>
</defs>
</svg>
